<svg xmlns="http://www.w3.org/2000/svg" width="20" height="20" viewBox="0 0 20 20"><defs><style>.a{fill:none;}.b{fill:#fff;}</style></defs><path class="a" d="M0,0H20V20H0Z"/><path class="b" d="M10.714,3a7.148,7.148,0,0,0-7.286,7H1l3.149,3.026.057.109L7.476,10H5.048a5.555,5.555,0,0,1,5.667-5.444A5.555,5.555,0,0,1,16.381,10a5.555,5.555,0,0,1-5.667,5.444,5.737,5.737,0,0,1-4-1.6l-1.15,1.1A7.4,7.4,0,0,0,10.714,17,7.148,7.148,0,0,0,18,10,7.148,7.148,0,0,0,10.714,3ZM9.9,6.889v3.889l3.465,1.976.583-.941-2.833-1.618V6.889Z" transform="translate(0 1)"/></svg>